<svg width="70" height="71" viewBox="0 0 70 71" fill="none" xmlns="http://www.w3.org/2000/svg">
<path d="M55.3225 29.7594C55.9457 29.7594 56.4516 29.2547 56.4516 28.6303V25.2432H68.8709C69.4941 25.2432 69.9999 24.7386 69.9999 24.1142V1.53357C69.9999 0.909218 69.4941 0.404541 68.8709 0.404541H32.7419C32.1186 0.404541 31.6128 0.909218 31.6128 1.53357V24.1142C31.6128 24.7386 32.1186 25.2432 32.7419 25.2432H45.1612V28.6303C45.1612 29.2547 45.667 29.7594 46.2903 29.7594H47.4193V35.7783L47.2364 35.61C45.3791 33.8962 43.1086 32.757 40.6711 32.2771V28.6303C40.6711 28.006 40.1653 27.5013 39.542 27.5013H21.4516C20.8283 27.5013 20.3225 28.006 20.3225 28.6303V32.4171C17.0777 33.2187 14.2099 35.1991 12.3086 38.051L7.29913 45.5658H5.6451C2.53236 45.5658 -6.10352e-05 48.0983 -6.10352e-05 51.211V60.2433C-6.10352e-05 62.1107 1.51962 63.6303 3.38704 63.6303H6.86445C7.41542 67.4532 10.7043 70.4045 14.6774 70.4045C18.6504 70.4045 21.9393 67.4532 22.4903 63.6303H45.2516C45.8025 67.4532 49.0914 70.4045 53.0645 70.4045C57.0375 70.4045 60.3264 67.4532 60.8774 63.6303H66.6128C68.4803 63.6303 69.9999 62.1107 69.9999 60.2433V51.211C69.9999 48.0983 67.4675 45.5658 64.3548 45.5658H58.022L54.1935 42.032V29.7594H55.3225ZM33.8709 2.66261H67.7419V22.9852H33.8709V2.66261ZM54.1935 25.2432V27.5013H47.4193V25.2432H54.1935ZM22.5806 29.7594H38.413V32.0344C38.2911 32.031 38.1703 32.0174 38.0472 32.0174H23.582C23.2445 32.0174 22.9136 32.0547 22.5806 32.0795V29.7594ZM28.2517 45.5658V34.2755H30.5098V45.5658H28.2517ZM14.1874 39.3031C16.2862 36.1553 19.7986 34.2755 23.582 34.2755H25.9936V45.5658H10.0122L14.1874 39.3031ZM4.51607 48.0316V51.211C4.51607 52.681 3.56881 53.9229 2.258 54.3904V51.211C2.258 49.741 3.20526 48.4991 4.51607 48.0316ZM14.6774 68.1465C11.5646 68.1465 9.0322 65.6141 9.0322 62.5013C9.0322 59.3886 11.5646 56.8562 14.6774 56.8562C17.7901 56.8562 20.3225 59.3886 20.3225 62.5013C20.3225 65.6141 17.7901 68.1465 14.6774 68.1465ZM53.0645 68.1465C49.9517 68.1465 47.4193 65.6141 47.4193 62.5013C47.4193 59.3886 49.9517 56.8562 53.0645 56.8562C56.1772 56.8562 58.7096 59.3886 58.7096 62.5013C58.7096 65.6141 56.1772 68.1465 53.0645 68.1465ZM66.6128 61.3723H60.8774C60.3264 57.5494 57.0375 54.5981 53.0645 54.5981C49.0914 54.5981 45.8025 57.5494 45.2516 61.3723H22.4903C21.9393 57.5494 18.6504 54.5981 14.6774 54.5981C10.7043 54.5981 7.41542 57.5494 6.86445 61.3723H3.38704C2.76494 61.3723 2.258 60.8665 2.258 60.2433V56.7421C4.83107 56.2171 6.77413 53.9365 6.77413 51.211V47.8239H60.9677V50.082C60.9677 52.5726 62.9932 54.5981 65.4838 54.5981H67.7419V60.2433C67.7419 60.8665 67.2349 61.3723 66.6128 61.3723ZM67.7419 51.211V52.34H65.4838C64.2385 52.34 63.2257 51.3273 63.2257 50.082V47.8239H64.3548C66.2222 47.8239 67.7419 49.3436 67.7419 51.211ZM32.7678 45.5658V34.2755H38.0472C40.8935 34.2755 43.6133 35.3379 45.7054 37.2686L54.6936 45.5658H32.7678ZM51.9354 39.9478L49.6774 37.8636V29.7594H51.9354V39.9478Z" fill="#219653"/>
</svg>
