<svg width="73" height="65" viewBox="0 0 73 65" fill="none" xmlns="http://www.w3.org/2000/svg">
<path d="M71.5744 31.5276C70.8247 30.7777 69.788 30.3669 68.7268 30.4015C65.9428 30.4913 63.2757 31.6321 61.2806 33.5556C61.3506 32.7066 61.3867 31.8506 61.3867 30.9891C61.3867 28.7088 61.1385 26.4471 60.6367 24.2204C59.7965 20.493 58.2504 16.9325 56.1055 13.7707C55.0326 12.1891 53.812 10.7082 52.4646 9.35288C51.3925 8.27456 50.2592 7.29279 49.0497 6.38685C47.2517 5.04014 45.1939 3.83487 43.2132 2.94924C39.2849 1.19273 34.9953 0.296021 30.6936 0.296021C22.4951 0.296021 14.7874 3.48868 8.99033 9.28572C8.43171 9.84433 7.90121 10.417 7.38775 11.0162C2.62374 16.5706 6.10352e-05 23.6639 6.10352e-05 30.9893C6.10352e-05 39.8479 3.7556 48.1395 10.3531 53.9724C13.3911 56.6682 16.9782 58.7672 20.8398 60.0727C24.0085 61.1439 27.3496 61.6824 30.6937 61.6824C35.7419 61.6824 40.6016 60.4673 44.9461 58.1836L47.1353 62.9998C47.4608 63.7159 48.1171 64.2271 48.8911 64.3675C49.6417 64.5037 50.4632 64.2556 51.0152 63.7034L52.605 62.1136C53.0288 61.6899 53.2774 61.1267 53.3051 60.5279L53.4978 56.3507L57.6205 52.6079L62.6689 60.2466C63.0677 60.8501 63.7091 61.2379 64.4288 61.3108C65.1246 61.3811 65.8582 61.1284 66.3663 60.6204L67.9558 59.031C68.4976 58.489 68.749 57.7137 68.6283 56.957L66.6344 44.4573L68.93 42.418C71.227 40.3775 72.6011 37.446 72.7003 34.3752C72.7348 33.3153 72.3245 32.2773 71.5744 31.5276ZM47.0811 7.588C53.4025 12.0216 57.6515 18.7947 58.8856 26.3549H41.3405C40.7014 26.3549 40.1005 26.106 39.6484 25.6539C39.1964 25.2019 38.9475 24.601 38.9475 23.9617C38.9475 22.6421 40.021 21.5686 41.3405 21.5686H45.5865C46.7927 21.5686 47.9274 21.0993 48.7826 20.2462C49.6362 19.3924 50.1064 18.2574 50.1064 17.0501C50.1064 14.5578 48.0787 12.5302 45.5865 12.5302H43.6241C42.9639 12.5302 42.3433 12.2733 41.876 11.806C41.4093 11.3403 41.1521 10.7202 41.1521 10.0597C41.1521 8.69671 42.2611 7.58786 43.6241 7.58786H47.0811V7.588ZM30.6937 59.5554C25.1245 59.5554 19.9228 57.9528 15.5246 55.1853H22.8092C24.1842 55.1853 25.4772 54.6497 26.4499 53.6771C27.4224 52.7045 27.958 51.4121 27.958 50.038C27.958 47.1998 25.6483 44.8908 22.8092 44.8908H19.039C18.6521 44.8908 18.2882 44.7401 18.0144 44.4664C17.7408 44.1927 17.59 43.8282 17.59 43.4401C17.59 42.6411 18.24 41.9911 19.039 41.9911H32.9157C34.5265 41.9911 36.0411 41.3636 37.1807 40.2242C38.3201 39.0847 38.9476 37.5696 38.9476 35.9577C38.9476 32.6318 36.2417 29.9259 32.9157 29.9259H27.4224C25.2051 29.9259 23.4013 28.1221 23.4013 25.9048V25.5658C23.4013 24.5812 23.7842 23.657 24.4799 22.9623C25.1754 22.2668 26.1006 21.8837 27.0849 21.8837C28.5865 21.8837 29.9974 21.2987 31.0563 20.2378C32.1185 19.1775 32.7036 17.7666 32.7036 16.265C32.7036 13.1661 30.1831 10.6449 27.085 10.6449H19.8362C19.2489 10.6449 18.7728 11.121 18.7728 11.7083C18.7728 12.2956 19.2489 12.7717 19.8362 12.7717H27.085C29.0104 12.7717 30.5769 14.3388 30.5769 16.265C30.5769 17.1978 30.2136 18.0741 29.5526 18.7339C28.8942 19.3936 28.0179 19.7569 27.0852 19.7569C25.5327 19.7569 24.0735 20.3611 22.9769 21.4577C21.8793 22.5535 21.2748 24.0124 21.2748 25.5657V25.9046C21.2748 29.2945 24.0327 32.0525 27.4227 32.0525H32.916C35.0692 32.0525 36.8211 33.8044 36.8211 35.9576C36.8211 37.0013 36.4148 37.9825 35.677 38.7202C34.9392 39.4578 33.9587 39.8642 32.916 39.8642H19.0393C17.0676 39.8642 15.4636 41.4684 15.4636 43.44C15.4636 44.3962 15.8354 45.2946 16.5109 45.97C17.1864 46.6454 18.0842 47.0173 19.0395 47.0173H22.8096C24.476 47.0173 25.8316 48.3723 25.8316 50.0378C25.8316 50.8437 25.5172 51.602 24.9464 52.173C24.3754 52.7439 23.6166 53.0583 22.8096 53.0583H12.5552C5.92276 47.6051 2.12689 39.5829 2.12689 30.9891C2.12689 24.3336 4.45409 17.8838 8.68943 12.7717H14.8613C15.4486 12.7717 15.9248 12.2956 15.9248 11.7083C15.9248 11.121 15.4486 10.6449 14.8613 10.6449H10.6643C15.8238 5.56426 22.8978 2.42257 30.6937 2.42257C35.299 2.42257 39.6521 3.51964 43.508 5.46386C41.0257 5.52592 39.0253 7.56272 39.0253 10.0596C39.0253 11.289 39.5042 12.4439 40.373 13.3106C41.2411 14.1788 42.3957 14.6569 43.6241 14.6569H45.5865C46.9061 14.6569 47.9796 15.7305 47.9796 17.05C47.9796 17.6891 47.7307 18.29 47.2796 18.7413C46.8267 19.193 46.2255 19.4416 45.5865 19.4416H41.3405C38.8483 19.4416 36.8206 21.4694 36.8206 23.9615C36.8206 25.1688 37.2908 26.3038 38.1445 27.1576C38.9984 28.0113 40.1334 28.4815 41.3405 28.4815H59.1493C59.2221 29.3077 59.26 30.144 59.26 30.9888C59.26 32.8193 59.0842 34.6092 58.7537 36.3448L58.6484 36.4633L53.1632 35.5883C52.5826 35.4951 52.038 35.891 51.9456 36.4708C51.8532 37.0507 52.2483 37.596 52.8281 37.6884L56.949 38.3459L51.931 43.8796L44.0224 38.653C43.9334 38.5942 43.9077 38.512 43.9019 38.4533C43.8959 38.3948 43.9047 38.3091 43.98 38.2337L45.5695 36.6443C45.6308 36.583 45.7187 36.5547 45.8045 36.5681L47.8863 36.9002C48.4664 36.9926 49.0114 36.5974 49.104 36.0177C49.1964 35.4378 48.8012 34.8925 48.2214 34.8L46.1395 34.4679C45.3833 34.3474 44.6073 34.5987 44.0658 35.1406L42.4762 36.7299C41.9648 37.2415 41.7131 37.9476 41.7858 38.6672C41.8587 39.3868 42.2463 40.0284 42.85 40.4272L50.4952 45.4799L46.7513 49.604L42.5741 49.7966C41.9756 49.8243 41.4125 50.073 40.9888 50.4967L39.3987 52.0866C38.8427 52.6428 38.5945 53.4369 38.7348 54.2109C38.875 54.9848 39.3864 55.6412 40.1023 55.9667L42.4341 57.0266C38.8505 58.6492 34.8764 59.5554 30.6937 59.5554ZM66.4523 57.5271L64.8629 59.1163C64.7875 59.1917 64.7015 59.2003 64.6433 59.1947C64.5848 59.1888 64.5025 59.1631 64.4438 59.074L59.217 51.1655L64.7508 46.1476L66.5286 57.2921C66.5422 57.3777 66.5137 57.4658 66.4523 57.5271ZM67.5179 40.8281L63.5615 44.3425L51.7413 55.073C51.5318 55.2631 51.4067 55.5288 51.3937 55.8114L51.1805 60.4298C51.1775 60.4977 51.1493 60.5616 51.101 60.6097L49.5112 62.1995C49.4281 62.2829 49.3343 62.2861 49.2704 62.2748C49.2065 62.2631 49.12 62.2269 49.0714 62.1197L46.7086 56.9213C46.6021 56.6873 46.4145 56.4998 46.1805 56.3933L40.9821 54.0304C40.8749 53.9817 40.8387 53.8953 40.8271 53.8314C40.8154 53.7675 40.8191 53.6737 40.9022 53.5905L42.4923 52.0006C42.5403 51.9526 42.6042 51.9243 42.6719 51.9212L47.2905 51.7081C47.5731 51.695 47.8386 51.5699 48.0287 51.3605L62.2738 35.5842C63.9283 33.7216 66.3052 32.6073 68.7953 32.527C68.8144 32.5264 68.8337 32.5261 68.8529 32.5261C69.3128 32.5261 69.7434 32.7042 70.0704 33.0313C70.4112 33.372 70.5902 33.8248 70.5746 34.3065C70.4945 36.7965 69.3803 39.1734 67.5179 40.8281Z" fill="#BB6BD9"/>
</svg>
