<svg width="148" height="171" viewBox="0 0 148 171" fill="none" xmlns="http://www.w3.org/2000/svg">
<path opacity="0.2" fill-rule="evenodd" clip-rule="evenodd" d="M122.308 10.0683C125.082 10.0683 127.331 7.81921 127.331 5.04487C127.331 2.27053 125.082 0.0214844 122.308 0.0214844C119.533 0.0214844 117.284 2.27053 117.284 5.04487C117.284 7.81921 119.533 10.0683 122.308 10.0683ZM82.1204 10.0684C84.8948 10.0684 87.1438 7.81933 87.1438 5.04499C87.1438 2.27065 84.8948 0.0216017 82.1204 0.0216017C79.3461 0.0216017 77.097 2.27065 77.097 5.04499C77.097 7.81933 79.3461 10.0684 82.1204 10.0684ZM107.237 5.04487C107.237 7.81921 104.988 10.0683 102.214 10.0683C99.4396 10.0683 97.1905 7.81921 97.1905 5.04487C97.1905 2.27053 99.4396 0.0214844 102.214 0.0214844C104.988 0.0214844 107.237 2.27053 107.237 5.04487ZM142.401 10.0683C145.175 10.0683 147.425 7.81921 147.425 5.04487C147.425 2.27053 145.175 0.0214844 142.401 0.0214844C139.627 0.0214844 137.378 2.27053 137.378 5.04487C137.378 7.81921 139.627 10.0683 142.401 10.0683ZM87.1439 65.3251C87.1439 65.3536 87.1436 65.382 87.1431 65.4104C87.1427 65.4361 87.1421 65.4618 87.1413 65.4875L87.1401 65.5208C87.1426 65.5857 87.1439 65.6509 87.1439 65.7164C87.1439 68.4907 84.8948 70.7397 82.1205 70.7397C79.3461 70.7397 77.0971 68.4907 77.0971 65.7164C77.0971 65.6509 77.0983 65.5857 77.1008 65.5208C77.0983 65.4559 77.0971 65.3906 77.0971 65.3251C77.0971 62.5508 79.3461 60.3018 82.1205 60.3018C84.8948 60.3018 87.1439 62.5508 87.1439 65.3251ZM127.327 65.5208C127.33 65.4559 127.331 65.3906 127.331 65.3251C127.331 62.5508 125.082 60.3018 122.308 60.3018C119.533 60.3018 117.284 62.5508 117.284 65.3251C117.284 65.3906 117.285 65.4559 117.288 65.5208C117.285 65.5857 117.284 65.6509 117.284 65.7164C117.284 68.4907 119.533 70.7397 122.308 70.7397C125.082 70.7397 127.331 68.4907 127.331 65.7164C127.331 65.6509 127.33 65.5857 127.327 65.5208ZM107.237 65.3251C107.237 65.3906 107.236 65.4559 107.234 65.5208C107.235 65.5586 107.236 65.5965 107.237 65.6345C107.237 65.6617 107.237 65.689 107.237 65.7164C107.237 68.4907 104.988 70.7397 102.214 70.7397C99.4396 70.7397 97.1905 68.4907 97.1905 65.7164C97.1905 65.6858 97.1908 65.6554 97.1913 65.625C97.192 65.5902 97.1929 65.5554 97.1943 65.5208C97.1918 65.4559 97.1905 65.3906 97.1905 65.3251C97.1905 62.5508 99.4396 60.3018 102.214 60.3018C104.988 60.3018 107.237 62.5508 107.237 65.3251ZM147.421 65.5208C147.423 65.4559 147.425 65.3906 147.425 65.3251C147.425 62.5508 145.175 60.3018 142.401 60.3018C139.627 60.3018 137.378 62.5508 137.378 65.3251C137.378 65.3906 137.379 65.4559 137.381 65.5208C137.38 65.5507 137.379 65.5807 137.379 65.6108C137.378 65.6459 137.378 65.6811 137.378 65.7164C137.378 68.4907 139.627 70.7397 142.401 70.7397C145.175 70.7397 147.425 68.4907 147.425 65.7164C147.425 65.6509 147.423 65.5857 147.421 65.5208ZM87.1439 25.1387C87.1439 27.9131 84.8948 30.1621 82.1205 30.1621C79.3461 30.1621 77.0971 27.9131 77.0971 25.1387C77.0971 22.3644 79.3461 20.1153 82.1205 20.1153C84.8948 20.1153 87.1439 22.3644 87.1439 25.1387ZM122.308 30.1621C125.082 30.1621 127.331 27.9131 127.331 25.1387C127.331 22.3644 125.082 20.1153 122.308 20.1153C119.533 20.1153 117.284 22.3644 117.284 25.1387C117.284 27.9131 119.533 30.1621 122.308 30.1621ZM107.237 25.1387C107.237 27.9131 104.988 30.1621 102.214 30.1621C99.4396 30.1621 97.1905 27.9131 97.1905 25.1387C97.1905 22.3644 99.4396 20.1153 102.214 20.1153C104.988 20.1153 107.237 22.3644 107.237 25.1387ZM142.401 30.1621C145.175 30.1621 147.425 27.9131 147.425 25.1387C147.425 22.3644 145.175 20.1153 142.401 20.1153C139.627 20.1153 137.378 22.3644 137.378 25.1387C137.378 27.9131 139.627 30.1621 142.401 30.1621ZM87.1439 85.419C87.1439 85.4844 87.1426 85.5495 87.1401 85.6143C87.1426 85.6791 87.1439 85.7442 87.1439 85.8096C87.1439 88.5839 84.8948 90.833 82.1205 90.833C79.3461 90.833 77.0971 88.5839 77.0971 85.8096C77.0971 85.7442 77.0983 85.6791 77.1008 85.6143C77.0983 85.5495 77.0971 85.4844 77.0971 85.419C77.0971 82.6447 79.3461 80.3956 82.1205 80.3956C84.8948 80.3956 87.1439 82.6447 87.1439 85.419ZM127.327 85.6133C127.33 85.5488 127.331 85.4841 127.331 85.419C127.331 82.6447 125.082 80.3956 122.308 80.3956C119.533 80.3956 117.284 82.6447 117.284 85.419C117.284 85.4847 117.285 85.5502 117.288 85.6153L117.287 85.6431L117.286 85.6737L117.285 85.7072L117.284 85.7623L117.284 85.8096C117.284 88.5839 119.533 90.833 122.308 90.833C125.082 90.833 127.331 88.5839 127.331 85.8096C127.331 85.7438 127.33 85.6784 127.327 85.6133ZM107.237 85.419C107.237 85.4844 107.236 85.5495 107.234 85.6143C107.236 85.6791 107.237 85.7442 107.237 85.8096C107.237 88.5839 104.988 90.833 102.214 90.833C99.4396 90.833 97.1905 88.5839 97.1905 85.8096C97.1905 85.7705 97.191 85.7316 97.1919 85.6927C97.1925 85.6665 97.1933 85.6404 97.1943 85.6143C97.1918 85.5495 97.1905 85.4844 97.1905 85.419C97.1905 82.6447 99.4396 80.3956 102.214 80.3956C104.988 80.3956 107.237 82.6447 107.237 85.419ZM147.421 85.6143C147.423 85.5495 147.425 85.4844 147.425 85.419C147.425 82.6447 145.175 80.3956 142.401 80.3956C139.627 80.3956 137.378 82.6447 137.378 85.419C137.378 85.4844 137.379 85.5495 137.381 85.6143C137.379 85.6791 137.378 85.7442 137.378 85.8096C137.378 88.5839 139.627 90.833 142.401 90.833C145.175 90.833 147.425 88.5839 147.425 85.8096C147.425 85.7442 147.423 85.6791 147.421 85.6143ZM87.1439 45.2319C87.1439 45.2975 87.1426 45.3627 87.1401 45.4276C87.1426 45.4922 87.1438 45.5571 87.1438 45.6223C87.1438 48.3966 84.8948 50.6456 82.1204 50.6456C79.3461 50.6456 77.097 48.3966 77.097 45.6223C77.097 45.5567 77.0983 45.4915 77.1008 45.4266C77.0983 45.362 77.0971 45.2971 77.0971 45.2319C77.0971 42.4576 79.3461 40.2086 82.1205 40.2086C84.8948 40.2086 87.1439 42.4576 87.1439 45.2319ZM127.327 45.4272C127.33 45.3624 127.331 45.2973 127.331 45.2319C127.331 42.4576 125.082 40.2086 122.308 40.2086C119.533 40.2086 117.284 42.4576 117.284 45.2319C117.284 45.2973 117.285 45.3624 117.288 45.4272C117.285 45.492 117.284 45.5571 117.284 45.6225C117.284 48.3968 119.533 50.6459 122.308 50.6459C125.082 50.6459 127.331 48.3968 127.331 45.6225C127.331 45.5571 127.33 45.492 127.327 45.4272ZM107.237 45.2319C107.237 45.2973 107.236 45.3624 107.234 45.4272C107.236 45.492 107.237 45.5571 107.237 45.6225C107.237 48.3968 104.988 50.6459 102.214 50.6459C99.4396 50.6459 97.1905 48.3968 97.1905 45.6225C97.1905 45.5571 97.1918 45.492 97.1943 45.4272C97.1918 45.3624 97.1905 45.2973 97.1905 45.2319C97.1905 42.4576 99.4396 40.2086 102.214 40.2086C104.988 40.2086 107.237 42.4576 107.237 45.2319ZM147.421 45.4272C147.423 45.3624 147.425 45.2973 147.425 45.2319C147.425 42.4576 145.175 40.2086 142.401 40.2086C139.627 40.2086 137.378 42.4576 137.378 45.2319C137.378 45.2973 137.379 45.3624 137.381 45.4272C137.379 45.492 137.378 45.5571 137.378 45.6225C137.378 48.3968 139.627 50.6459 142.401 50.6459C145.175 50.6459 147.425 48.3968 147.425 45.6225C147.425 45.5817 147.424 45.5411 147.423 45.5005C147.422 45.4761 147.422 45.4516 147.421 45.4272ZM87.1439 105.513C87.1439 105.578 87.1426 105.643 87.1401 105.708C87.1426 105.773 87.1439 105.837 87.1439 105.903C87.1439 108.677 84.8948 110.926 82.1205 110.926C79.3461 110.926 77.0971 108.677 77.0971 105.903C77.0971 105.837 77.0983 105.773 77.1008 105.708C77.0983 105.643 77.0971 105.578 77.0971 105.513C77.0971 102.739 79.3461 100.489 82.1205 100.489C84.8948 100.489 87.1439 102.739 87.1439 105.513ZM127.33 105.599C127.331 105.571 127.331 105.542 127.331 105.513C127.331 102.739 125.082 100.489 122.308 100.489C119.533 100.489 117.284 102.739 117.284 105.513C117.284 105.578 117.285 105.644 117.288 105.709C117.285 105.773 117.284 105.838 117.284 105.903C117.284 108.677 119.533 110.926 122.308 110.926C125.082 110.926 127.331 108.677 127.331 105.903C127.331 105.837 127.33 105.772 127.327 105.707L127.329 105.653L127.33 105.599ZM107.237 105.513L107.237 105.567C107.237 105.614 107.235 105.661 107.234 105.708C107.236 105.773 107.237 105.837 107.237 105.903C107.237 108.677 104.988 110.926 102.214 110.926C99.4396 110.926 97.1905 108.677 97.1905 105.903C97.1905 105.837 97.1918 105.773 97.1942 105.708C97.1918 105.643 97.1905 105.578 97.1905 105.513C97.1905 102.739 99.4396 100.489 102.214 100.489C104.988 100.489 107.237 102.739 107.237 105.513ZM147.421 105.708C147.423 105.643 147.425 105.578 147.425 105.513C147.425 102.739 145.175 100.489 142.401 100.489C139.627 100.489 137.378 102.739 137.378 105.513C137.378 105.578 137.379 105.643 137.381 105.708C137.379 105.773 137.378 105.837 137.378 105.903C137.378 108.677 139.627 110.926 142.401 110.926C145.175 110.926 147.425 108.677 147.425 105.903C147.425 105.837 147.423 105.773 147.421 105.708ZM87.1439 124.601C87.1439 124.838 87.1275 125.071 87.0958 125.299C87.1275 125.527 87.1439 125.76 87.1439 125.997C87.1439 128.771 84.8948 131.02 82.1205 131.02C79.3461 131.02 77.0971 128.771 77.0971 125.997C77.0971 125.76 77.1135 125.527 77.1452 125.299C77.1135 125.071 77.0971 124.838 77.0971 124.601C77.0971 121.827 79.3461 119.577 82.1205 119.577C84.8948 119.577 87.1439 121.827 87.1439 124.601ZM127.283 125.299C127.315 125.071 127.331 124.838 127.331 124.601C127.331 121.827 125.082 119.577 122.308 119.577C119.533 119.577 117.284 121.827 117.284 124.601C117.284 124.838 117.301 125.071 117.332 125.299C117.301 125.527 117.284 125.76 117.284 125.997C117.284 128.771 119.533 131.02 122.308 131.02C125.082 131.02 127.331 128.771 127.331 125.997C127.331 125.76 127.315 125.527 127.283 125.299ZM107.237 124.601C107.237 124.838 107.221 125.071 107.189 125.299C107.221 125.527 107.237 125.76 107.237 125.997C107.237 128.771 104.988 131.02 102.214 131.02C99.4396 131.02 97.1905 128.771 97.1905 125.997C97.1905 125.76 97.2069 125.527 97.2386 125.299C97.2069 125.071 97.1905 124.838 97.1905 124.601C97.1905 121.827 99.4396 119.577 102.214 119.577C104.988 119.577 107.237 121.827 107.237 124.601ZM147.376 125.299C147.408 125.071 147.425 124.838 147.425 124.601C147.425 121.827 145.175 119.577 142.401 119.577C139.627 119.577 137.378 121.827 137.378 124.601C137.378 124.838 137.394 125.071 137.426 125.299C137.394 125.527 137.378 125.76 137.378 125.997C137.378 128.771 139.627 131.02 142.401 131.02C145.175 131.02 147.425 128.771 147.425 125.997C147.425 125.76 147.408 125.527 147.376 125.299ZM87.1439 146.09C87.1439 148.865 84.8948 151.114 82.1205 151.114C79.3461 151.114 77.0971 148.865 77.0971 146.09C77.0971 143.316 79.3461 141.067 82.1205 141.067C84.8948 141.067 87.1439 143.316 87.1439 146.09ZM122.308 151.114C125.082 151.114 127.331 148.865 127.331 146.09C127.331 143.316 125.082 141.067 122.308 141.067C119.533 141.067 117.284 143.316 117.284 146.09C117.284 148.865 119.533 151.114 122.308 151.114ZM107.237 146.09C107.237 148.865 104.988 151.114 102.214 151.114C99.4396 151.114 97.1905 148.865 97.1905 146.09C97.1905 143.316 99.4396 141.067 102.214 141.067C104.988 141.067 107.237 143.316 107.237 146.09ZM142.401 151.114C145.175 151.114 147.425 148.865 147.425 146.09C147.425 143.316 145.175 141.067 142.401 141.067C139.627 141.067 137.378 143.316 137.378 146.09C137.378 148.865 139.627 151.114 142.401 151.114ZM87.1439 165.179C87.1439 167.953 84.8948 170.202 82.1205 170.202C79.3461 170.202 77.0971 167.953 77.0971 165.179C77.0971 162.404 79.3461 160.155 82.1205 160.155C84.8948 160.155 87.1439 162.404 87.1439 165.179ZM122.308 170.202C125.082 170.202 127.331 167.953 127.331 165.179C127.331 162.404 125.082 160.155 122.308 160.155C119.533 160.155 117.284 162.404 117.284 165.179C117.284 167.953 119.533 170.202 122.308 170.202ZM107.237 165.179C107.237 167.953 104.988 170.202 102.214 170.202C99.4396 170.202 97.1905 167.953 97.1905 165.179C97.1905 162.404 99.4396 160.155 102.214 160.155C104.988 160.155 107.237 162.404 107.237 165.179ZM142.401 170.202C145.175 170.202 147.425 167.953 147.425 165.179C147.425 162.404 145.175 160.155 142.401 160.155C139.627 160.155 137.378 162.404 137.378 165.179C137.378 167.953 139.627 170.202 142.401 170.202ZM10.0468 5.04499C10.0468 7.81933 7.79773 10.0684 5.02339 10.0684C2.24905 10.0684 0 7.81933 0 5.04499C0 2.27065 2.24905 0.0216017 5.02339 0.0216017C7.79773 0.0216017 10.0468 2.27065 10.0468 5.04499ZM45.2106 10.0683C47.9849 10.0683 50.2339 7.81921 50.2339 5.04487C50.2339 2.27053 47.9849 0.0214844 45.2106 0.0214844C42.4362 0.0214844 40.1872 2.27053 40.1872 5.04487C40.1872 7.81921 42.4362 10.0683 45.2106 10.0683ZM30.1403 5.04487C30.1403 7.81921 27.8912 10.0683 25.1169 10.0683C22.3425 10.0683 20.0935 7.81921 20.0935 5.04487C20.0935 2.27053 22.3425 0.0214844 25.1169 0.0214844C27.8912 0.0214844 30.1403 2.27053 30.1403 5.04487ZM65.3041 10.0683C68.0784 10.0683 70.3275 7.81921 70.3275 5.04487C70.3275 2.27053 68.0784 0.0214844 65.3041 0.0214844C62.5298 0.0214844 60.2807 2.27053 60.2807 5.04487C60.2807 7.81921 62.5298 10.0683 65.3041 10.0683ZM10.0468 65.3251C10.0468 65.3906 10.0456 65.4559 10.0431 65.5208C10.0456 65.5857 10.0468 65.6509 10.0468 65.7164C10.0468 68.4907 7.79777 70.7397 5.02343 70.7397C2.24909 70.7397 4.22318e-05 68.4907 4.22318e-05 65.7164C4.22318e-05 65.6509 0.00129614 65.5857 0.00378127 65.5208C0.00129614 65.4559 4.22318e-05 65.3906 4.22318e-05 65.3251C4.22318e-05 62.5508 2.24909 60.3018 5.02343 60.3018C7.79777 60.3018 10.0468 62.5508 10.0468 65.3251ZM50.2302 65.5208C50.2327 65.4559 50.2339 65.3906 50.2339 65.3251C50.2339 62.5508 47.9849 60.3018 45.2106 60.3018C42.4362 60.3018 40.1872 62.5508 40.1872 65.3251C40.1872 65.3906 40.1884 65.4559 40.1909 65.5208C40.1884 65.5857 40.1872 65.6509 40.1872 65.7164C40.1872 68.4907 42.4362 70.7397 45.2106 70.7397C47.9849 70.7397 50.2339 68.4907 50.2339 65.7164C50.2339 65.6509 50.2327 65.5857 50.2302 65.5208ZM30.1403 65.3251C30.1403 65.3906 30.139 65.4559 30.1365 65.5208C30.139 65.5857 30.1403 65.6509 30.1403 65.7164C30.1403 68.4907 27.8912 70.7397 25.1169 70.7397C22.3425 70.7397 20.0935 68.4907 20.0935 65.7164C20.0935 65.6509 20.0947 65.5857 20.0972 65.5208C20.0947 65.4559 20.0935 65.3906 20.0935 65.3251C20.0935 62.5508 22.3425 60.3018 25.1169 60.3018C27.8912 60.3018 30.1403 62.5508 30.1403 65.3251ZM70.3237 65.5208C70.3262 65.4559 70.3275 65.3906 70.3275 65.3251C70.3275 62.5508 68.0784 60.3018 65.3041 60.3018C62.5298 60.3018 60.2807 62.5508 60.2807 65.3251C60.2807 65.3906 60.282 65.4559 60.2844 65.5208C60.282 65.5857 60.2807 65.6509 60.2807 65.7164C60.2807 68.4907 62.5298 70.7397 65.3041 70.7397C68.0784 70.7397 70.3275 68.4907 70.3275 65.7164C70.3275 65.6509 70.3262 65.5857 70.3237 65.5208ZM10.0468 25.1387C10.0468 27.9131 7.79777 30.1621 5.02343 30.1621C2.24909 30.1621 4.22318e-05 27.9131 4.22318e-05 25.1387C4.22318e-05 22.3644 2.24909 20.1153 5.02343 20.1153C7.79777 20.1153 10.0468 22.3644 10.0468 25.1387ZM45.2106 30.1621C47.9849 30.1621 50.2339 27.9131 50.2339 25.1387C50.2339 22.3644 47.9849 20.1153 45.2106 20.1153C42.4362 20.1153 40.1872 22.3644 40.1872 25.1387C40.1872 27.9131 42.4362 30.1621 45.2106 30.1621ZM30.1403 25.1387C30.1403 27.9131 27.8912 30.1621 25.1169 30.1621C22.3425 30.1621 20.0935 27.9131 20.0935 25.1387C20.0935 22.3644 22.3425 20.1153 25.1169 20.1153C27.8912 20.1153 30.1403 22.3644 30.1403 25.1387ZM65.3041 30.1621C68.0784 30.1621 70.3275 27.9131 70.3275 25.1387C70.3275 22.3644 68.0784 20.1153 65.3041 20.1153C62.5298 20.1153 60.2807 22.3644 60.2807 25.1387C60.2807 27.9131 62.5298 30.1621 65.3041 30.1621ZM10.0468 85.419C10.0468 85.4844 10.0456 85.5495 10.0431 85.6143C10.0456 85.6791 10.0468 85.7442 10.0468 85.8096C10.0468 88.5839 7.79777 90.833 5.02343 90.833C2.24909 90.833 4.22318e-05 88.5839 4.22318e-05 85.8096C4.22318e-05 85.7442 0.00129184 85.6791 0.00376847 85.6143C0.00129184 85.5495 4.22318e-05 85.4844 4.22318e-05 85.419C4.22318e-05 82.6447 2.24909 80.3956 5.02343 80.3956C7.79777 80.3956 10.0468 82.6447 10.0468 85.419ZM50.2302 85.6133C50.2313 85.5845 50.2321 85.5555 50.2327 85.5265C50.2335 85.4908 50.2339 85.4549 50.2339 85.419C50.2339 82.6447 47.9848 80.3956 45.2105 80.3956C42.4361 80.3956 40.1871 82.6447 40.1871 85.419C40.1871 85.4847 40.1884 85.5501 40.1909 85.6152C40.1884 85.6797 40.1872 85.7445 40.1872 85.8096C40.1872 88.5839 42.4362 90.833 45.2106 90.833C47.9849 90.833 50.2339 88.5839 50.2339 85.8096C50.2339 85.7439 50.2327 85.6785 50.2302 85.6133ZM30.1403 85.419C30.1403 85.4844 30.139 85.5495 30.1365 85.6143C30.139 85.6791 30.1403 85.7442 30.1403 85.8096C30.1403 88.5839 27.8912 90.833 25.1169 90.833C22.3425 90.833 20.0935 88.5839 20.0935 85.8096C20.0935 85.7442 20.0947 85.6791 20.0972 85.6143C20.0947 85.5495 20.0935 85.4844 20.0935 85.419C20.0935 82.6447 22.3425 80.3956 25.1169 80.3956C27.8912 80.3956 30.1403 82.6447 30.1403 85.419ZM70.3238 85.6143C70.3262 85.5495 70.3275 85.4844 70.3275 85.419C70.3275 82.6447 68.0784 80.3956 65.3041 80.3956C62.5298 80.3956 60.2807 82.6447 60.2807 85.419C60.2807 85.4844 60.282 85.5495 60.2844 85.6143C60.282 85.6791 60.2807 85.7442 60.2807 85.8096C60.2807 88.5839 62.5298 90.833 65.3041 90.833C68.0784 90.833 70.3275 88.5839 70.3275 85.8096C70.3275 85.7442 70.3262 85.6791 70.3238 85.6143ZM10.0468 45.2319C10.0468 45.2975 10.0456 45.3627 10.0431 45.4277C10.0455 45.4922 10.0468 45.5571 10.0468 45.6223C10.0468 48.3966 7.79773 50.6456 5.02339 50.6456C2.24905 50.6456 0 48.3966 0 45.6223C0 45.5567 0.00125507 45.4915 0.0037425 45.4265C0.0012831 45.362 4.22318e-05 45.2971 4.22318e-05 45.2319C4.22318e-05 42.4576 2.24909 40.2086 5.02343 40.2086C7.79777 40.2086 10.0468 42.4576 10.0468 45.2319ZM50.2302 45.4272C50.2327 45.3624 50.2339 45.2973 50.2339 45.2319C50.2339 42.4576 47.9849 40.2086 45.2106 40.2086C42.4362 40.2086 40.1872 42.4576 40.1872 45.2319C40.1872 45.2973 40.1884 45.3624 40.1909 45.4272C40.1884 45.492 40.1872 45.5571 40.1872 45.6225C40.1872 48.3968 42.4362 50.6459 45.2106 50.6459C47.9849 50.6459 50.2339 48.3968 50.2339 45.6225C50.2339 45.5571 50.2327 45.492 50.2302 45.4272ZM30.1403 45.2319C30.1403 45.2973 30.139 45.3624 30.1365 45.4272C30.139 45.492 30.1403 45.5571 30.1403 45.6225C30.1403 48.3968 27.8912 50.6459 25.1169 50.6459C22.3425 50.6459 20.0935 48.3968 20.0935 45.6225C20.0935 45.5571 20.0947 45.492 20.0972 45.4272C20.0947 45.3624 20.0935 45.2973 20.0935 45.2319C20.0935 42.4576 22.3425 40.2086 25.1169 40.2086C27.8912 40.2086 30.1403 42.4576 30.1403 45.2319ZM70.3238 45.4272C70.3262 45.3624 70.3275 45.2973 70.3275 45.2319C70.3275 42.4576 68.0784 40.2086 65.3041 40.2086C62.5298 40.2086 60.2807 42.4576 60.2807 45.2319C60.2807 45.2973 60.282 45.3624 60.2844 45.4272C60.282 45.492 60.2807 45.5571 60.2807 45.6225C60.2807 48.3968 62.5298 50.6459 65.3041 50.6459C68.0784 50.6459 70.3275 48.3968 70.3275 45.6225C70.3275 45.5571 70.3262 45.492 70.3238 45.4272ZM10.0468 105.513C10.0468 105.578 10.0456 105.643 10.0431 105.708C10.0456 105.773 10.0468 105.837 10.0468 105.903C10.0468 108.677 7.79777 110.926 5.02343 110.926C2.24909 110.926 4.22318e-05 108.677 4.22318e-05 105.903C4.22318e-05 105.837 0.00128759 105.773 0.00375584 105.708C0.00128759 105.643 4.22318e-05 105.578 4.22318e-05 105.513C4.22318e-05 102.739 2.24909 100.489 5.02343 100.489C7.79777 100.489 10.0468 102.739 10.0468 105.513ZM50.2302 105.707C50.2326 105.643 50.2339 105.578 50.2339 105.513C50.2339 102.739 47.9848 100.489 45.2105 100.489C42.4361 100.489 40.1871 102.739 40.1871 105.513C40.1871 105.578 40.1884 105.644 40.1908 105.709C40.1884 105.773 40.1872 105.838 40.1872 105.903C40.1872 108.677 42.4362 110.926 45.2106 110.926C47.9849 110.926 50.2339 108.677 50.2339 105.903C50.2339 105.837 50.2327 105.772 50.2302 105.707ZM30.1381 105.66L30.1366 105.708C30.139 105.773 30.1403 105.837 30.1403 105.903C30.1403 108.677 27.8912 110.926 25.1169 110.926C22.3425 110.926 20.0935 108.677 20.0935 105.903C20.0935 105.837 20.0947 105.773 20.0972 105.708C20.0947 105.643 20.0935 105.578 20.0935 105.513C20.0935 102.739 22.3425 100.489 25.1169 100.489C27.8912 100.489 30.1403 102.739 30.1403 105.513C30.1403 105.55 30.1399 105.586 30.1391 105.623L30.1381 105.66ZM70.3259 105.64L70.3265 105.613C70.3271 105.58 70.3275 105.546 70.3275 105.513C70.3275 102.739 68.0784 100.489 65.3041 100.489C62.5298 100.489 60.2807 102.739 60.2807 105.513C60.2807 105.578 60.2819 105.643 60.2844 105.708C60.2819 105.773 60.2807 105.837 60.2807 105.903C60.2807 108.677 62.5298 110.926 65.3041 110.926C68.0784 110.926 70.3275 108.677 70.3275 105.903C70.3275 105.837 70.3262 105.773 70.3238 105.708C70.3246 105.685 70.3253 105.663 70.3259 105.64ZM10.0468 124.601C10.0468 124.838 10.0304 125.071 9.99873 125.299C10.0304 125.527 10.0468 125.76 10.0468 125.997C10.0468 128.771 7.79777 131.02 5.02343 131.02C2.24909 131.02 4.22318e-05 128.771 4.22318e-05 125.997C4.22318e-05 125.76 0.0164287 125.527 0.0481296 125.299C0.0164287 125.071 4.22318e-05 124.838 4.22318e-05 124.601C4.22318e-05 121.827 2.24909 119.577 5.02343 119.577C7.79777 119.577 10.0468 121.827 10.0468 124.601ZM50.1858 125.299C50.2175 125.071 50.2339 124.838 50.2339 124.601C50.2339 121.827 47.9848 119.577 45.2105 119.577C42.4361 119.577 40.1871 121.827 40.1871 124.601C40.1871 124.838 40.2035 125.071 40.2352 125.299C40.2035 125.527 40.1871 125.76 40.1871 125.997C40.1871 128.771 42.4361 131.02 45.2105 131.02C47.9848 131.02 50.2339 128.771 50.2339 125.997C50.2339 125.76 50.2175 125.527 50.1858 125.299ZM30.1403 124.601C30.1403 124.838 30.1239 125.071 30.0922 125.299C30.1239 125.527 30.1403 125.76 30.1403 125.997C30.1403 128.771 27.8912 131.02 25.1169 131.02C22.3425 131.02 20.0935 128.771 20.0935 125.997C20.0935 125.76 20.1099 125.527 20.1416 125.299C20.1099 125.071 20.0935 124.838 20.0935 124.601C20.0935 121.827 22.3425 119.577 25.1169 119.577C27.8912 119.577 30.1403 121.827 30.1403 124.601ZM70.2794 125.299C70.3111 125.071 70.3275 124.838 70.3275 124.601C70.3275 121.827 68.0784 119.577 65.3041 119.577C62.5298 119.577 60.2807 121.827 60.2807 124.601C60.2807 124.838 60.2971 125.071 60.3288 125.299C60.2971 125.527 60.2807 125.76 60.2807 125.997C60.2807 128.771 62.5298 131.02 65.3041 131.02C68.0784 131.02 70.3275 128.771 70.3275 125.997C70.3275 125.76 70.3111 125.527 70.2794 125.299ZM10.0468 146.09C10.0468 148.865 7.79777 151.114 5.02343 151.114C2.24909 151.114 4.22318e-05 148.865 4.22318e-05 146.09C4.22318e-05 143.316 2.24909 141.067 5.02343 141.067C7.79777 141.067 10.0468 143.316 10.0468 146.09ZM45.2105 151.114C47.9848 151.114 50.2339 148.865 50.2339 146.09C50.2339 143.316 47.9848 141.067 45.2105 141.067C42.4361 141.067 40.1871 143.316 40.1871 146.09C40.1871 148.865 42.4361 151.114 45.2105 151.114ZM30.1403 146.09C30.1403 148.865 27.8912 151.114 25.1169 151.114C22.3425 151.114 20.0935 148.865 20.0935 146.09C20.0935 143.316 22.3425 141.067 25.1169 141.067C27.8912 141.067 30.1403 143.316 30.1403 146.09ZM65.3041 151.114C68.0784 151.114 70.3275 148.865 70.3275 146.09C70.3275 143.316 68.0784 141.067 65.3041 141.067C62.5298 141.067 60.2807 143.316 60.2807 146.09C60.2807 148.865 62.5298 151.114 65.3041 151.114ZM10.0468 165.179C10.0468 167.953 7.79777 170.202 5.02343 170.202C2.24909 170.202 4.22318e-05 167.953 4.22318e-05 165.179C4.22318e-05 162.404 2.24909 160.155 5.02343 160.155C7.79777 160.155 10.0468 162.404 10.0468 165.179ZM45.2105 170.202C47.9848 170.202 50.2339 167.953 50.2339 165.179C50.2339 162.404 47.9848 160.155 45.2105 160.155C42.4361 160.155 40.1871 162.404 40.1871 165.179C40.1871 167.953 42.4361 170.202 45.2105 170.202ZM30.1403 165.179C30.1403 167.953 27.8912 170.202 25.1169 170.202C22.3425 170.202 20.0935 167.953 20.0935 165.179C20.0935 162.404 22.3425 160.155 25.1169 160.155C27.8912 160.155 30.1403 162.404 30.1403 165.179ZM65.3041 170.202C68.0784 170.202 70.3275 167.953 70.3275 165.179C70.3275 162.404 68.0784 160.155 65.3041 160.155C62.5298 160.155 60.2807 162.404 60.2807 165.179C60.2807 167.953 62.5298 170.202 65.3041 170.202Z" fill="#666666"/>
</svg>
